<svg xmlns="http://www.w3.org/2000/svg" viewBox="0 0 512 512">
  <defs>
    <linearGradient id="moonGradient" x1="0%" y1="0%" x2="100%" y2="100%">
      <stop offset="0%" style="stop-color:#fbbf24;stop-opacity:1" />
      <stop offset="100%" style="stop-color:#d97706;stop-opacity:1" />
    </linearGradient>
    <filter id="glow" x="-20%" y="-20%" width="140%" height="140%">
      <feGaussianBlur stdDeviation="15" result="blur" />
      <feComposite in="SourceGraphic" in2="blur" operator="over" />
    </filter>
  </defs>
  
  <rect x="0" y="0" width="512" height="512" rx="120" fill="#0f172a" />
  
  <g transform="translate(64, 64) scale(0.75)">
    <path d="M256,64 C180,64 114,105 80,166 C100,158 122,154 144,154 C223.53,154 288,218.47 288,298 C288,348.6 261,392.8 221,418 C232.5,419.3 244.2,420 256,420 C353.2,420 432,341.2 432,244 C432,146.8 353.2,64 256,64 Z" 
          fill="url(#moonGradient)" 
          filter="url(#glow)" />
          
    <g transform="translate(180, 100)">
      <line x1="0" y1="0" x2="0" y2="60" stroke="#d4a574" stroke-width="4" />
      <path d="M-20,60 L20,60 L28,90 L-28,90 Z" fill="#d4a574" />
      <path d="M-28,90 L28,90 L28,150 L-28,150 Z" fill="#fcd34d" fill-opacity="0.9" />
      <path d="M-28,150 L28,150 L20,170 L-20,170 Z" fill="#d4a574" />
    </g>
    
    <path d="M380,100 L385,115 L400,120 L385,125 L380,140 L375,125 L360,120 L375,115 Z" fill="#fbbf24" opacity="0.8" />
    <path d="M100,350 L103,358 L111,361 L103,364 L100,372 L97,364 L89,361 L97,358 Z" fill="#fbbf24" opacity="0.6" />
  </g>
</svg>
